<?xml version="1.0" standalone="no"?>
<!DOCTYPE svg PUBLIC "-//W3C//DTD SVG 1.1//EN" 
  "http://www.w3.org/Graphics/SVG/1.1/DTD/svg11.dtd">
<svg
    version="1.1"
    xmlns="http://www.w3.org/2000/svg"
    xmlns:xlink="http://www.w3.org/1999/xlink"
    x="0px"
    y="0px"
    viewBox="0 0 882 400"
    xml:space="preserve"
    class="logo"
  >
    <path
      fill="#ff8054"
      d="M184,116.8c21.5,0,43.8,10.7,61.1,25.4l-24.3,22.3c-11.8-7.2-28.5-12.7-36.8-12.7h-1.5
	c-6.8,0-21.7,1.3-21.7,12.3c0,8.3,12.3,9.6,21.9,10.7l9.9,0.9c31.6,3.5,56.9,15.3,56.9,48.9c0,30-25.4,48.2-61.3,48.6h-1.1
	c-25.5,0.2-49.8-10.6-66.8-29.6l24.3-22.4c11.5,10.8,26.7,16.8,42.5,16.9h1.1c15.8-0.2,24.1-5.3,24.1-13.6c0-11-12.5-12.7-24.8-14.2
	l-10.1-1.1c-28.5-3.1-53.9-14.9-53.9-44c0-29.8,25.4-48,58.9-48.4L184,116.8z"
    />
    <polygon
      fill="#ff8054"
      points="384.9,271.7 384.9,185.8 344.6,235.1 304.5,185.8 304.5,271.7 267.3,271.7 267.3,118.3 289.6,118.3 
	344.6,186.7 399.8,118.3 422.2,118.3 422.2,271.7 "
    />
    <polygon
      fill="#ff8054"
      points="527,271.7 527,118.3 564.3,118.3 564.3,236.4 628.2,236.4 628.2,271.7 "
    />
    <polygon
      fill="#ff8054"
      points="749.9,177.3 749.9,212.6 688.1,212.6 688.1,236.4 755.8,236.4 755.8,271.7 650.9,271.7 650.9,118.3 
	755.8,118.3 755.8,153.4 688.1,153.4 688.1,177.3 "
    />
    <rect x="455.5" y="118.1" fill="#ff8054" width="37.4" height="153.5" />
    <path
      fill="#3b72ff"
      d="M345.3,263c-26.4,0-47.8-21.4-47.8-47.8c0.1-2.1,1.9-3.6,3.9-3.5c1.9,0.1,3.4,1.6,3.5,3.5
	c0,22.3,18.1,40.3,40.3,40.3s40.3-18.1,40.3-40.3c0-2.1,1.7-3.7,3.7-3.7c2.1,0,3.7,1.7,3.7,3.7C393.1,241.6,371.7,263,345.3,263z"
    />
    <path
      fill="#3b72ff"
      d="M382.9,173.2c-0.8,0-1.7,0-2.5-0.1c-9-0.7-17.3-4.8-23.3-11.5c-1.2-1.7-0.9-4,0.7-5.2c1.4-1.1,3.4-1,4.8,0.2
	c4.7,5.3,11.3,8.5,18.4,9.1c6.7,0.6,13.4-1.7,18.4-6.2c1.6-1.3,4-1,5.2,0.6c1.1,1.5,1,3.5-0.2,4.9
	C398.5,170.3,390.8,173.3,382.9,173.2z"
    />
    <path
      fill="#3b72ff"
      d="M305.5,173.2c-8,0-15.6-2.9-21.5-8.3c-1.6-1.3-1.9-3.6-0.6-5.2c1.3-1.6,3.6-1.9,5.2-0.6
	c0.1,0.1,0.3,0.2,0.4,0.4c5,4.5,11.7,6.8,18.4,6.2c7.1-0.6,13.7-3.8,18.4-9.1c1.5-1.4,3.9-1.3,5.3,0.2c1.2,1.3,1.3,3.3,0.2,4.8
	c-6,6.7-14.4,10.8-23.4,11.5C307.2,173.2,306.3,173.2,305.5,173.2z"
    />
    <path
      fill="#3b72ff"
      d="M817.6,229c-2,0-3.7-1.6-3.7-3.7l0,0c0-3.1-0.8-8.5-2.4-10.1c-1.9-1.9-6.4-2.4-7.8-2.4c-2.1,0-3.7-1.7-3.7-3.8
	c0-2.1,1.7-3.7,3.8-3.7l0,0l0,0c2.1,0,6.1-0.6,7.8-2.3c1.5-1.5,2.3-7,2.3-10.5l0,0c0-2.1,1.7-3.7,3.7-3.7l0,0c2.1,0,3.7,1.7,3.7,3.7
	v0.1c0,3.4,0.8,8.9,2.3,10.4c1.8,1.8,5.8,2.3,7.7,2.3c0,0,0.1,0,0.1,0l0,0c2.1,0,3.7,1.7,3.7,3.7c0,2.1-1.7,3.7-3.7,3.7l0,0
	c-2.1,0-6.1,0.7-7.8,2.4c-1.5,1.5-2.3,6.8-2.4,10.1C821.3,227.4,819.6,229,817.6,229L817.6,229z M815.9,209.2
	c0.3,0.2,0.6,0.5,0.8,0.8c0.3,0.3,0.6,0.6,0.8,1c0.3-0.4,0.6-0.7,0.9-1c0.3-0.3,0.6-0.5,0.9-0.8c-0.3-0.3-0.6-0.5-0.9-0.8
	c-0.3-0.3-0.5-0.6-0.8-0.9c-0.2,0.3-0.5,0.6-0.8,0.9C816.6,208.7,816.2,208.9,815.9,209.2L815.9,209.2z"
    />
    <path
      fill="#3b72ff"
      d="M623.9,112.3c-2.1,0-3.7-1.7-3.7-3.7c0-3.1-0.8-8.4-2.4-10c-1.8-1.8-6-2.4-7.8-2.4c-2.1-0.1-3.6-1.9-3.5-4
	c0.1-1.9,1.7-3.4,3.6-3.5l0,0c2.1,0,6.1-0.6,7.8-2.3c1.5-1.5,2.3-7,2.3-10.4v-0.1c0-2.1,1.7-3.7,3.7-3.7l0,0c2.1,0,3.7,1.7,3.7,3.7
	l0,0c0,3.4,0.8,8.9,2.3,10.5c1.9,1.9,6.3,2.3,7.8,2.3l0,0c2.1,0,3.7,1.6,3.8,3.7c0,1.8-1.3,3.4-3.1,3.7l0,0c-0.2,0-0.4,0.1-0.6,0.1
	l0,0c-2.1,0-6.1,0.7-7.8,2.4c-1.5,1.5-2.4,6.8-2.4,10.1C627.5,110.7,625.9,112.3,623.9,112.3L623.9,112.3z M622.1,92.5
	c0.3,0.2,0.6,0.5,0.8,0.8c0.3,0.3,0.6,0.6,0.8,1c0.3-0.4,0.6-0.7,0.9-1c0.3-0.3,0.6-0.5,0.9-0.8c-0.3-0.3-0.6-0.5-0.9-0.8
	c-0.3-0.3-0.5-0.6-0.8-0.9c-0.2,0.3-0.5,0.6-0.8,0.9C622.8,92,622.5,92.3,622.1,92.5z"
    />
    <path
      fill="#3b72ff"
      d="M449.6,267.1c-2,0-3.7-1.7-3.7-3.7c0-3.1-0.8-8.4-2.4-10.1c-1.8-1.8-6-2.4-7.8-2.4c-2.1-0.1-3.6-1.9-3.5-4
	c0.1-1.9,1.7-3.4,3.6-3.5l0,0c2.1,0,6.1-0.6,7.8-2.3s2.3-7.1,2.3-10.5l0,0c0-2.1,1.7-3.7,3.7-3.7l0,0c2.1,0,3.7,1.7,3.7,3.7l0,0l0,0
	c0,3.4,0.8,8.9,2.4,10.5c1.8,1.8,6,2.3,7.7,2.3h0.1c2.1,0.1,3.6,1.9,3.5,3.9c-0.1,1.9-1.6,3.4-3.5,3.5l0,0c-2.1,0-6.1,0.7-7.8,2.4
	c-1.5,1.5-2.4,6.8-2.4,10.1C453.2,265.4,451.6,267.1,449.6,267.1L449.6,267.1z M447.8,247.3c0.3,0.2,0.6,0.5,0.8,0.8
	c0.3,0.3,0.6,0.7,0.9,1c0.3-0.4,0.6-0.7,0.9-1c0.3-0.3,0.6-0.5,0.9-0.8c-0.3-0.2-0.6-0.5-0.9-0.8c-0.3-0.3-0.5-0.6-0.8-0.9
	c-0.2,0.3-0.5,0.6-0.8,0.9C448.5,246.8,448.2,247.1,447.8,247.3L447.8,247.3z"
    />
    <path
      fill="#3b72ff"
      d="M223.4,107.4c-2,0-3.7-1.7-3.7-3.7c0-4.6-1.2-13-4-15.8c-3.2-3.2-10.3-4-12.5-4c-2.1-0.1-3.6-1.9-3.5-3.9
	c0.1-1.9,1.6-3.4,3.5-3.5h0.1c2.5,0,9.4-0.7,12.5-3.8c2.9-2.9,3.9-12.3,3.9-16.5V56c0-2.1,1.7-3.7,3.7-3.7l0,0
	c2.1,0,3.7,1.6,3.7,3.7c0,0,0,0,0,0l0,0c0,5.2,1.2,13.7,3.9,16.4c3.2,3.2,10,3.8,12.4,3.8h0.2c2.1,0.1,3.6,1.9,3.5,3.9
	c-0.1,1.9-1.6,3.4-3.5,3.5l0,0c-2.4,0-9.4,0.8-12.6,4c-2.9,2.9-3.9,12-4,15.9C227.1,105.7,225.4,107.4,223.4,107.4L223.4,107.4z
	 M217.9,80.2c1.1,0.7,2.1,1.4,3,2.3c1,1,1.8,2.1,2.4,3.4c0.6-1.3,1.5-2.4,2.5-3.5c0.9-0.9,1.9-1.7,3-2.3c-1.1-0.7-2.1-1.5-3.1-2.4
	c-0.9-1-1.7-2.1-2.4-3.2c-0.6,1.2-1.4,2.3-2.4,3.3C220.1,78.7,219.1,79.5,217.9,80.2L217.9,80.2z"
    />
    <path
      fill="#3b72ff"
      d="M346.7,83.6c-2.1,0-3.7-1.7-3.7-3.7c0,0,0,0,0,0V60.8c0.1-2.1,1.9-3.6,3.9-3.5c1.9,0.1,3.4,1.6,3.5,3.5v19.1
	C350.5,81.9,348.8,83.5,346.7,83.6z"
    />
    <path
      fill="#3b72ff"
      d="M381.8,90.9c-2.1,0-3.7-1.7-3.7-3.7c0-0.9,0.3-1.7,0.9-2.4l12.1-14.7c1.3-1.6,3.7-1.8,5.3-0.5s1.8,3.7,0.5,5.3
	l-12.1,14.7C384,90.4,382.9,90.9,381.8,90.9z"
    />
    <path
      fill="#3b72ff"
      d="M311,90.8c-1.1,0-2.1-0.5-2.8-1.2l-12.7-14.3c-1.4-1.5-1.2-3.9,0.3-5.3c1.5-1.4,3.9-1.2,5.3,0.3l12.6,14.3
	c1.4,1.5,1.3,3.9-0.3,5.3C312.8,90.4,311.9,90.8,311,90.8z"
    />
    <path
      fill="#3b72ff"
      d="M599.8,222.3l26.8-4.3c8.3-1.3,13.3-8.5,12.1-16c-1.2-7.5-8.4-12.7-15.9-11.4c0,0,0,0,0,0
	c-1.2-7.6-8.2-12.7-15.8-11.6c0,0,0,0-0.1,0c-7.5,1.2-12.8,8.2-11.4,16.5C597,204.8,599.4,219.7,599.8,222.3"
    />
    <path
      fill="#3b72ff"
      d="M578.4,165.9c-2.1,0-3.7-1.7-3.7-3.8c0-0.9,0.3-1.8,1-2.5c11.8-13,31.5-14.4,43.9-3.1c1.6,1.3,1.9,3.6,0.6,5.2
	c-1.3,1.6-3.6,1.9-5.2,0.6c-0.1-0.1-0.2-0.2-0.3-0.3c-9.3-8.5-24.3-7.3-33.3,2.6C580.5,165.4,579.5,165.9,578.4,165.9z"
    />
    <path
      fill="#3b72ff"
      d="M505.5,157.4c0-8.1,6.5-14.6,14.6-14.6c8.1,0,14.6,6.5,14.6,14.6s-6.5,14.6-14.6,14.6
	C512.1,172,505.5,165.5,505.5,157.4C505.5,157.4,505.5,157.4,505.5,157.4"
    />
    <path
      fill="#3b72ff"
      d="M555.5,241.8c-2.1,0-3.8-1.6-3.8-3.7c0-1.2,0.6-2.4,1.5-3.1l16.4-12.2l-10.4-12.3c-1.3-1.5-1.2-3.7,0.2-5.1
	l9.3-9.1l-15.4-12.5c-1.6-1.4-1.7-3.7-0.4-5.3c1.3-1.5,3.5-1.7,5.1-0.5l18.6,15.2c1.6,1.3,1.8,3.6,0.5,5.2c-0.1,0.1-0.2,0.2-0.3,0.3
	l-9.8,9.6L578,221c1.3,1.6,1.1,3.9-0.4,5.3c-0.1,0-0.1,0.1-0.2,0.1L557.8,241C557.1,241.5,556.3,241.8,555.5,241.8z"
    />
    <path
      fill="#3b72ff"
      d="M576.8,143.7c-2.1,0-3.7-1.7-3.7-3.7c0-1.3,0.6-2.4,1.7-3.1l19.9-13.2c1.7-1.2,4-0.9,5.2,0.8
	c1.2,1.7,0.9,4-0.8,5.2c-0.1,0.1-0.2,0.1-0.3,0.2l-19.9,13.2C578.2,143.5,577.5,143.7,576.8,143.7z"
    />
    <path
      fill="#3b72ff"
      d="M158.7,42.3c0,3.4-2.7,6.1-6.1,6.1c-3.4,0-6.1-2.7-6.1-6.1c0-3.4,2.7-6.1,6.1-6.1
	C155.9,36.2,158.7,38.9,158.7,42.3"
    />
    <path
      fill="#3b72ff"
      d="M701.2,43c0,3.4-2.7,6.1-6.1,6.1c-3.4,0-6.1-2.7-6.1-6.1c0-3.4,2.7-6.1,6.1-6.1C698.5,36.9,701.2,39.6,701.2,43
	C701.2,43,701.2,43,701.2,43"
    />
    <path
      fill="#3b72ff"
      d="M505.5,94.3c0,3.4-2.7,6.1-6.1,6.1s-6.1-2.7-6.1-6.1s2.7-6.1,6.1-6.1S505.5,90.9,505.5,94.3L505.5,94.3"
    />
    <path
      fill="#3b72ff"
      d="M785,240.9c0,3.4-2.7,6.1-6.1,6.1c-3.4,0-6.1-2.7-6.1-6.1c0-3.4,2.7-6.1,6.1-6.1S785,237.5,785,240.9
	C785,240.9,785,240.9,785,240.9"
    />
    <path
      fill="#3b72ff"
      d="M428.3,208.7c0,3.4-2.7,6.1-6.1,6.1c-3.4,0-6.1-2.7-6.1-6.1c0-3.4,2.7-6.1,6.1-6.1
	C425.5,202.5,428.3,205.3,428.3,208.7C428.3,208.7,428.3,208.7,428.3,208.7"
    />
    <path
      fill="#3b72ff"
      d="M735.4,177.4c-2.1,0-3.7-1.7-3.7-3.7c0-0.5,0.1-1.1,0.3-1.5l6.7-14.8c-6-6.6-9.3-15.2-9.4-24.1
	c0-21.7,20-39.3,44.6-39.3s44.6,17.6,44.6,39.3s-20,39.2-44.6,39.2c-5.4,0-10.8-0.9-15.9-2.6l-21.3,7.3
	C736.3,177.4,735.9,177.4,735.4,177.4z M773.9,101.4c-20.5,0-37.1,14.3-37.1,31.8c0.1,7.8,3.3,15.3,9,20.7c1.1,1.1,1.4,2.8,0.8,4.2
	l-4.2,9.2l14.4-4.9c0.8-0.3,1.7-0.3,2.5,0c4.7,1.7,9.6,2.6,14.6,2.6c20.5,0,37.1-14.3,37.1-31.8S794.3,101.4,773.9,101.4
	L773.9,101.4z"
    />
    <path
      fill="#3b72ff"
      d="M754.3,133.9c0-2.3,1.8-4.1,4.1-4.1c2.3,0,4.1,1.8,4.1,4.1c0,2.3-1.8,4.1-4.1,4.1c0,0,0,0,0,0
	C756.2,138,754.3,136.2,754.3,133.9C754.3,133.9,754.3,133.9,754.3,133.9"
    />
    <path
      fill="#3b72ff"
      d="M768.7,133.9c0-2.3,1.8-4.1,4.1-4.1c2.3,0,4.1,1.8,4.1,4.1c0,2.3-1.8,4.1-4.1,4.1c0,0,0,0,0,0
	C770.6,138,768.7,136.2,768.7,133.9C768.7,133.9,768.7,133.9,768.7,133.9"
    />
    <path
      fill="#3b72ff"
      d="M783.2,133.9c0-2.3,1.8-4.1,4.1-4.1c2.3,0,4.1,1.8,4.1,4.1c0,2.3-1.8,4.1-4.1,4.1c0,0,0,0,0,0
	C785,138,783.2,136.2,783.2,133.9C783.2,133.9,783.2,133.9,783.2,133.9"
    />
    <path
      fill="#3b72ff"
      d="M451,164.3c0,2.2-1.8,3.9-3.9,3.9s-3.9-1.8-3.9-3.9c0-2.2,1.8-3.9,3.9-3.9S451,162.1,451,164.3L451,164.3"
    />
    <path
      fill="#3b72ff"
      d="M100.9,153c0,2.2-1.8,3.9-3.9,3.9c-2.2,0-3.9-1.8-3.9-3.9s1.8-3.9,3.9-3.9c0,0,0,0,0,0
	C99.2,149.1,100.9,150.8,100.9,153"
    />
    <path
      fill="#3b72ff"
      d="M51,261.3c-2.1,0-3.7-1.7-3.7-3.7c0-0.2,0-0.3,0-0.5c0.1-0.7,2.3-16.3,10-23.7c5.1-5,13.4-4.9,18.4,0.3
	c0,0,0,0,0,0c5,5.1,4.9,13.4-0.3,18.4c0,0,0,0,0,0l0,0c-8.5,8.2-23.5,9.2-24.2,9.2L51,261.3z M66.3,237.2c-1.4,0-2.8,0.6-3.9,1.6
	c-3.4,3.3-5.6,9.6-6.8,14.4c4.3-0.8,10.6-2.6,14.5-6.5l0,0c2.2-2.1,2.2-5.6,0.1-7.8C69.2,237.8,67.8,237.2,66.3,237.2z"
    />
    <path
      fill="#3b72ff"
      d="M84.2,241.8c-1.9,0-3.5-1.4-3.7-3.3c-0.3-2.4-1.4-4.7-3.1-6.4l-0.1-0.1c-1.8-1.8-4.1-2.9-6.7-3.2
	c-2.1-0.2-3.5-2.1-3.3-4.1c0-0.1,0-0.3,0.1-0.4c2.4-10.9,7.8-26.4,19.7-38c20.7-20.4,52.6-21,53.9-21l0,0c2.1,0,3.7,1.7,3.7,3.7
	c0,0,0,0,0,0.1c0,1.4-0.7,33.6-21.5,54C111.6,234.5,96,239.5,85,241.7C84.7,241.7,84.5,241.8,84.2,241.8z M75.6,222.2
	c2.7,0.9,5.1,2.5,7.1,4.5l0.1,0.1l0.1,0.1c1.9,1.9,3.3,4.2,4.1,6.8c9.6-2.3,21.8-6.9,31.1-16c14.5-14.3,18.1-35.8,19-44.7
	c-8.8,0.8-30.2,4.3-44.7,18.6C83.1,200.6,78.2,212.6,75.6,222.2z M117.9,203.7c-6.4,0-11.6-5.2-11.7-11.6c0-3.1,1.2-6.1,3.5-8.3
	c2.2-2.2,5.2-3.4,8.3-3.4c3.1,0,6.1,1.3,8.2,3.5l0,0c4.5,4.6,4.5,11.9-0.1,16.4C123.9,202.5,121,203.7,117.9,203.7L117.9,203.7z
	 M117.9,187.9c-2.3,0-4.2,1.8-4.2,4.1c0,1.1,0.4,2.2,1.2,3c1.6,1.7,4.3,1.7,5.9,0.1c1.7-1.6,1.7-4.3,0.1-5.9
	C120.1,188.3,119,187.9,117.9,187.9z"
    />
    <path
      fill="#3b72ff"
      d="M73.6,219.6c-0.3,0-0.7-0.1-1-0.1l-21.2-6c-2-0.6-3.1-2.6-2.6-4.6c0.2-0.6,0.5-1.2,1-1.6L65.2,192
	c0.7-0.6,1.6-1,2.5-1l16.9-0.3c2.1,0,3.8,1.6,3.8,3.7s-1.6,3.8-3.7,3.8l0,0l-15.4,0.3l-9.8,9.6l15,4.2c2,0.6,3.1,2.7,2.5,4.6
	C76.7,218.5,75.2,219.6,73.6,219.6L73.6,219.6z"
    />
    <path
      fill="#3b72ff"
      d="M98.7,260.7c-1.7,0-3.2-1.1-3.6-2.8l-5.4-20.3c-0.5-2,0.7-4,2.7-4.6s4,0.7,4.6,2.7l3.7,14.1l9.8-9.6l0.5-14
	c0-2.1,1.7-3.7,3.7-3.7c2.1,0,3.7,1.7,3.7,3.7c0,0.1,0,0.2,0,0.3l-0.6,15.5c0,1-0.4,1.9-1.1,2.5l-15.4,15.2
	C100.6,260.3,99.6,260.7,98.7,260.7z"
    />
    <path fill="#3b72ff" d="M300.5,364.4v-28.8h5.6v28.8H300.5z" />
    <path fill="#3b72ff" d="M319.6,364.4v-5.9h4.4v5.9H319.6z" />
    <path
      fill="#3b72ff"
      d="M356.1,340.4h-9.2v23.9h-5.6v-23.9h-9.2v-4.9h24L356.1,340.4z"
    />
    <path fill="#3b72ff" d="M384.5,364.4v-28.8h5.6v28.8H384.5z" />
    <path
      fill="#3b72ff"
      d="M421.4,343.1c-0.3-0.3-0.6-0.5-1-0.8c-0.6-0.4-1.2-0.7-1.8-1c-0.8-0.3-1.5-0.6-2.3-0.8
	c-0.8-0.2-1.7-0.3-2.6-0.3c-1.2-0.1-2.4,0.2-3.5,0.9c-0.8,0.6-1.2,1.5-1.1,2.4c0,0.5,0.1,1,0.4,1.5c0.3,0.4,0.7,0.8,1.2,1
	c0.7,0.3,1.3,0.6,2.1,0.8c0.8,0.2,1.8,0.5,2.9,0.8c1.4,0.4,2.7,0.8,3.8,1.2c1.1,0.4,2,0.9,2.9,1.6c0.8,0.6,1.4,1.4,1.9,2.3
	c0.5,1.1,0.7,2.2,0.6,3.4c0,1.4-0.3,2.8-0.9,4c-0.6,1.1-1.4,2-2.4,2.7c-1,0.7-2.2,1.2-3.4,1.5c-1.3,0.3-2.7,0.5-4,0.5
	c-2.2,0-4.3-0.3-6.4-1c-2-0.6-3.9-1.5-5.7-2.8l2.5-4.8c0.4,0.4,0.8,0.7,1.3,1c0.7,0.4,1.5,0.8,2.3,1.2c0.9,0.4,1.9,0.8,2.9,1
	c1.1,0.3,2.2,0.4,3.2,0.4c3.1,0,4.6-1,4.6-3c0-0.6-0.2-1.1-0.5-1.6c-0.4-0.5-0.9-0.9-1.5-1.1c-0.8-0.4-1.5-0.7-2.4-0.9l-3.1-0.9
	c-1.2-0.3-2.4-0.7-3.6-1.2c-0.9-0.4-1.8-0.9-2.5-1.6c-0.7-0.6-1.2-1.3-1.5-2.1c-0.4-0.9-0.5-1.9-0.5-2.9c0-1.3,0.3-2.7,0.8-3.9
	c0.5-1.1,1.3-2.1,2.2-2.8c1-0.8,2.1-1.4,3.4-1.7c1.3-0.4,2.7-0.6,4.1-0.6c1.9,0,3.8,0.3,5.6,1c1.6,0.6,3.1,1.3,4.5,2.2L421.4,343.1z
	"
    />
    <path
      fill="#3b72ff"
      d="M467.4,364.6c-2,0-4-0.4-5.8-1.2c-1.7-0.8-3.2-1.9-4.4-3.3c-2.5-2.8-3.9-6.4-3.9-10.1c0-1.9,0.4-3.8,1.1-5.5
	c0.7-1.7,1.7-3.3,3-4.7c1.3-1.4,2.8-2.5,4.5-3.2c1.8-0.8,3.7-1.2,5.6-1.2c2,0,3.9,0.4,5.7,1.3c1.7,0.8,3.2,2,4.4,3.4
	c1.2,1.4,2.2,3,2.8,4.7c1.4,3.5,1.4,7.4,0,10.9c-0.7,1.7-1.7,3.3-2.9,4.6c-1.3,1.4-2.8,2.4-4.5,3.2
	C471.4,364.2,469.4,364.6,467.4,364.6z M459.1,349.9c0,1.2,0.2,2.5,0.6,3.6c0.4,1.1,0.9,2.2,1.6,3.1c0.7,0.9,1.6,1.6,2.6,2.1
	c2.3,1.1,4.9,1.1,7.1,0c1-0.5,1.9-1.3,2.6-2.2c0.7-0.9,1.3-2,1.6-3.1c0.8-2.3,0.8-4.8,0-7.1c-0.4-1.1-0.9-2.2-1.7-3.1
	c-0.7-0.9-1.6-1.6-2.6-2.1c-1.1-0.5-2.3-0.8-3.5-0.8c-1.3,0-2.5,0.3-3.6,0.8c-1,0.5-1.9,1.3-2.6,2.2c-0.7,0.9-1.3,2-1.6,3.1
	C459.3,347.6,459.1,348.8,459.1,349.9z"
    />
    <path
      fill="#3b72ff"
      d="M494,364.4v-28.8h12.2c1.3,0,2.5,0.3,3.7,0.8c1.1,0.5,2.1,1.3,2.9,2.2c0.8,0.9,1.5,2,1.9,3.1
	c0.5,1.1,0.7,2.3,0.7,3.5c0,2.4-0.9,4.8-2.5,6.6c-0.8,0.9-1.8,1.6-2.8,2.1c-1.1,0.5-2.4,0.8-3.7,0.8h-6.8v9.7H494z M499.6,349.8h6.5
	c1,0,2-0.5,2.6-1.3c0.7-1,1.1-2.2,1-3.4c0-0.7-0.1-1.4-0.3-2c-0.2-0.5-0.5-1-0.9-1.5c-0.3-0.4-0.8-0.7-1.2-0.9
	c-0.5-0.2-1-0.3-1.5-0.3h-6.2L499.6,349.8z"
    />
    <path
      fill="#3b72ff"
      d="M547.4,359.4v4.9h-20v-28.8H547v4.9h-14v6.9h12.1v4.5H533v7.5H547.4z"
    />
    <path
      fill="#3b72ff"
      d="M565.5,345.9v18.5h-5.6v-28.8h4.3l15,18.9v-18.9h5.6v28.8h-4.5L565.5,345.9z"
    />
  </svg>